<?xml version="1.0" encoding="UTF-8" standalone="no"?>
<!-- Created with Inkscape (http://www.inkscape.org/) -->
<svg
  width="12.688292mm"
  height="33.422604mm"
  viewBox="0 0 12.688292 33.422604"
  version="1.1"
  id="svg5"
  xml:space="preserve"
  inkscape:version="1.2.2 (732a01da63, 2022-12-09)"
  sodipodi:docname="bunny.svg"
  xmlns:inkscape="http://www.inkscape.org/namespaces/inkscape"
  xmlns:sodipodi="http://sodipodi.sourceforge.net/DTD/sodipodi-0.dtd"
  xmlns="http://www.w3.org/2000/svg"
  xmlns:svg="http://www.w3.org/2000/svg">
  <sodipodi:namedview
    id="namedview7"
    pagecolor="#505050"
    bordercolor="#eeeeee"
    borderopacity="1"
    inkscape:showpageshadow="0"
    inkscape:pageopacity="0"
    inkscape:pagecheckerboard="0"
    inkscape:deskcolor="#505050"
    inkscape:document-units="mm"
    showgrid="false"
    inkscape:zoom="10.35098"
    inkscape:cx="32.798827"
    inkscape:cy="58.255355"
    inkscape:window-width="2560"
    inkscape:window-height="1387"
    inkscape:window-x="3832"
    inkscape:window-y="714"
    inkscape:window-maximized="1"
    inkscape:current-layer="layer1"
    showguides="false"
  />
  <defs id="defs2">
    <inkscape:path-effect
      effect="mirror_symmetry"
      start_point="27.798259,22.462612"
      end_point="27.798259,22.973836"
      center_point="27.798259,22.718224"
      id="path-effect24178"
      is_visible="true"
      lpeversion="1.2"
      lpesatellites=""
      mode="free"
      discard_orig_path="false"
      fuse_paths="false"
      oposite_fuse="false"
      split_items="false"
      split_open="false"
      link_styles="false"
    />
    <inkscape:path-effect
      effect="mirror_symmetry"
      start_point="27.785096,22.703688"
      end_point="27.785096,25.125669"
      center_point="27.785096,23.914679"
      id="path-effect24176"
      is_visible="true"
      lpeversion="1.2"
      lpesatellites=""
      mode="free"
      discard_orig_path="false"
      fuse_paths="false"
      oposite_fuse="false"
      split_items="false"
      split_open="false"
      link_styles="false"
    />
    <inkscape:path-effect
      effect="mirror_symmetry"
      start_point="27.752603,29.420004"
      end_point="27.752603,33.789762"
      center_point="27.752603,31.604883"
      id="path-effect24174"
      is_visible="true"
      lpeversion="1.2"
      lpesatellites=""
      mode="free"
      discard_orig_path="false"
      fuse_paths="true"
      oposite_fuse="false"
      split_items="false"
      split_open="false"
      link_styles="false"
    />
    <inkscape:path-effect
      effect="mirror_symmetry"
      start_point="27.775424,23.193582"
      end_point="27.775424,23.567414"
      center_point="27.775424,23.380498"
      id="path-effect24139"
      is_visible="true"
      lpeversion="1.2"
      lpesatellites=""
      mode="free"
      discard_orig_path="false"
      fuse_paths="false"
      oposite_fuse="false"
      split_items="false"
      split_open="false"
      link_styles="false"
    />
    <inkscape:path-effect
      effect="mirror_symmetry"
      start_point="27.781816,23.174411"
      end_point="27.781816,23.564219"
      center_point="27.781816,23.369315"
      id="path-effect24135"
      is_visible="true"
      lpeversion="1.2"
      lpesatellites=""
      mode="X"
      discard_orig_path="true"
      fuse_paths="true"
      oposite_fuse="false"
      split_items="false"
      split_open="false"
      link_styles="false"
    />
    <inkscape:path-effect
      effect="mirror_symmetry"
      start_point="27.798561,9.2902875"
      end_point="27.798561,43.044922"
      center_point="27.798561,26.167605"
      id="path-effect24133"
      is_visible="true"
      lpeversion="1.2"
      lpesatellites=""
      mode="free"
      discard_orig_path="false"
      fuse_paths="false"
      oposite_fuse="false"
      split_items="false"
      split_open="false"
      link_styles="false"
    />
    <inkscape:path-effect
      effect="mirror_symmetry"
      start_point="27.775424,9.290287"
      end_point="27.775424,43.044922"
      center_point="27.775424,26.167604"
      id="path-effect24090"
      is_visible="true"
      lpeversion="1.2"
      lpesatellites=""
      mode="free"
      discard_orig_path="false"
      fuse_paths="true"
      oposite_fuse="false"
      split_items="false"
      split_open="false"
      link_styles="false"
    />
    <inkscape:path-effect
      effect="mirror_symmetry"
      start_point="25.305664,38.249748"
      end_point="25.305664,43.157888"
      center_point="25.305664,40.655074"
      id="path-effect18357"
      is_visible="true"
      lpeversion="1.2"
      lpesatellites=""
      mode="X"
      discard_orig_path="false"
      fuse_paths="true"
      oposite_fuse="false"
      split_items="false"
      split_open="false"
      link_styles="true"
    />
    <inkscape:path-effect
      effect="mirror_symmetry"
      start_point="25.303447,38.546268"
      end_point="25.303447,43.045037"
      center_point="25.303447,40.795653"
      id="path-effect18354"
      is_visible="true"
      lpeversion="1.2"
      lpesatellites=""
      mode="X"
      discard_orig_path="false"
      fuse_paths="true"
      oposite_fuse="false"
      split_items="false"
      split_open="false"
      link_styles="true"
    />
    <inkscape:path-effect
      effect="mirror_symmetry"
      start_point="27.657204,27.041426"
      end_point="27.657204,38.955873"
      center_point="27.657204,33.287841"
      id="path-effect17534"
      is_visible="true"
      lpeversion="1.2"
      lpesatellites=""
      mode="X"
      discard_orig_path="false"
      fuse_paths="true"
      oposite_fuse="false"
      split_items="false"
      split_open="false"
      link_styles="true"
    />
    <inkscape:path-effect
      effect="mirror_symmetry"
      start_point="27.912816,25.869713"
      end_point="27.912816,46.879215"
      center_point="27.912816,36.884791"
      id="path-effect16865"
      is_visible="true"
      lpeversion="1.2"
      lpesatellites=""
      mode="X"
      discard_orig_path="false"
      fuse_paths="true"
      oposite_fuse="false"
      split_items="false"
      split_open="false"
      link_styles="true"
    />
    <inkscape:path-effect
      effect="mirror_symmetry"
      start_point="20.821812,30.003652"
      end_point="20.821812,46.704478"
      center_point="20.821812,38.354065"
      id="path-effect14214"
      is_visible="true"
      lpeversion="1.2"
      lpesatellites=""
      mode="free"
      discard_orig_path="true"
      fuse_paths="true"
      oposite_fuse="false"
      split_items="false"
      split_open="false"
      link_styles="false"
    />
  </defs>
  <g inkscape:label="Layer 1" inkscape:groupmode="layer" id="layer1" transform="translate(-21.472491,-9.2902865)">
    <g id="g24131" inkscape:path-effect="#path-effect24133" class="UnoptimicedTransforms">
      <path
        id="rect18352"
        d="m 24.916016,38.335938 c -0.199638,-0.08341 -0.410486,-0.123625 -0.455078,0.05664 -0.25963,0 -0.257614,1.359878 -0.28125,2.402344 -0.01803,0.795355 -0.10189,1.917969 1.074218,1.917969 0.0173,0 0.03335,-5.44e-4 0.05078,0 0.01743,-5.44e-4 0.03543,0 0.05273,0 1.176108,0 1.092249,-1.122614 1.074219,-1.917969 -0.02364,-1.042466 -0.02162,-2.402344 -0.28125,-2.402344 -0.08919,-0.360531 -0.84375,0.154297 -0.84375,0.154297 h -0.002 c 0,0 -0.189034,-0.127529 -0.388672,-0.210937 z m 5.76509,0 c 0.199638,-0.08341 0.410486,-0.123625 0.455078,0.05664 0.25963,0 0.257614,1.359878 0.28125,2.402344 0.01803,0.795355 0.10189,1.917969 -1.074218,1.917969 -0.0173,0 -0.03335,-5.44e-4 -0.05078,0 -0.01743,-5.44e-4 -0.03543,0 -0.05273,0 -1.176108,0 -1.092249,-1.122614 -1.074219,-1.917969 0.02364,-1.042466 0.02162,-2.402344 0.28125,-2.402344 0.08919,-0.360531 0.84375,0.154297 0.84375,0.154297 h 0.002 c 0,0 0.189034,-0.127529 0.388672,-0.210937 z"
        style="fill:#f4a2a2;fill-opacity:1;stroke:#2a7fff;stroke-width:0;stroke-miterlimit:0"
        inkscape:path-effect="#path-effect18357"
        inkscape:original-d="m 24.461543,38.393508 c -0.259629,0 -0.257537,1.359563 -0.281174,2.402029 -0.01803,0.795355 -0.102912,1.91709 1.073196,1.91709 0.596155,0 1.279637,0.332295 1.279637,0.332295 v -4.498047 h -1.228515 c 0,0 -0.75396,-0.513898 -0.843145,-0.153367 z"
        class="UnoptimicedTransforms"
        sodipodi:nodetypes="ssscccss"
      />
      <path
        id="path3953"
        style="fill:#f4a2a2;fill-opacity:1;stroke:#2a7fff;stroke-width:0;stroke-miterlimit:0"
        d="m 26.641794,14.622261 c 0,2.944767 -0.818146,3.745817 -1.879746,4.500547 0.947146,-1.115181 -1.952045,-1.555779 -1.952045,-4.500547 0,-2.944768 0.857776,-5.3319745 1.915896,-5.331974 1.05812,1.1e-6 1.915895,2.387207 1.915895,5.331974 z m 2.313534,0 c 0,2.944767 0.818146,3.745817 1.879746,4.500547 -0.947146,-1.115181 1.952045,-1.555779 1.952045,-4.500547 0,-2.944768 -0.857776,-5.3319745 -1.915896,-5.331974 -1.05812,1.1e-6 -1.915895,2.387207 -1.915895,5.331974 z"
        sodipodi:nodetypes="scsss"
        inkscape:original-d="m 26.641794,14.622261 c 0,2.944767 -0.818146,3.745817 -1.879746,4.500547 0.947146,-1.115181 -1.952045,-1.555779 -1.952045,-4.500547 0,-2.944768 0.857776,-5.3319745 1.915896,-5.331974 1.05812,1.1e-6 1.915895,2.387207 1.915895,5.331974 z"
      />
    </g>
    <path
      id="rect16377"
      style="fill:#f7bcbc;stroke:#2a7fff;stroke-width:0;stroke-miterlimit:0"
      d="m 27.070312,29.011719 c -4.232519,-0.419564 -5.929866,2.887024 -6.242187,5.326172 -1.357251,10.599769 0.2453,11.449598 7.083984,11.68164 6.838685,-0.232042 8.443189,-1.081871 7.085938,-11.68164 -0.312321,-2.439148 -2.009668,-5.745736 -6.242188,-5.326172 -0.282278,0.02798 -0.564473,0.04163 -0.84375,0.04492 -0.279276,-0.0033 -0.559518,-0.01694 -0.841797,-0.04492 z"
      inkscape:path-effect="#path-effect16865"
      inkscape:original-d="m 27.069918,29.010786 c 4.233059,0.419617 8.255643,-2.120418 8.255643,-2.120418 v 19.988847 c 0,0 -5.516859,-1.055558 -7.313449,-0.855463 -6.92245,-0.227378 -8.547723,-1.035099 -7.183927,-11.685982 0.312321,-2.439148 2.009213,-5.746548 6.241733,-5.326984 z"
      class="UnoptimicedTransforms"
      sodipodi:nodetypes="scccss"
      transform="matrix(0.67450153,0,0,0.67450153,8.9892941,8.4368947)"
    />
    <path
      id="rect17186"
      style="fill:#f7d5d5;stroke:#2a7fff;stroke-width:0;stroke-miterlimit:0"
      d="m 26.433594,27.619141 c 0,0 -1.941511,2.632288 -2.480469,4.46875 -0.408905,1.393327 -0.839957,4.053344 0.06836,5.527343 0.700087,1.13609 2.494958,1.329091 3.634766,1.339844 1.139808,-0.01075 2.936632,-0.203754 3.636719,-1.339844 0.908316,-1.473999 0.477264,-4.134016 0.06836,-5.527343 -0.538958,-1.836462 -2.480469,-4.46875 -2.480469,-4.46875 l -1.224609,0.892578 z"
      inkscape:path-effect="#path-effect17534"
      inkscape:original-d="m 26.433899,27.61981 3.626056,2.644636 v 6.594786 c 0,0 -1.483495,2.096641 -2.29754,2.096641 -1.13132,0 -3.019254,-0.169769 -3.741289,-1.341476 -0.908316,-1.473999 -0.476945,-4.133503 -0.06804,-5.52683 0.538958,-1.836462 2.48081,-4.467757 2.48081,-4.467757 z"
      class="UnoptimicedTransforms"
      sodipodi:nodetypes="cccsssc"
      transform="translate(0.15940991)"
    />
    <circle
      style="fill:#f7bcbc;fill-opacity:1;stroke:#2a7fff;stroke-width:0;stroke-miterlimit:0"
      id="path3692"
      cx="27.816637"
      cy="22.538887"
      r="6.3441453"
    />
    <circle
      style="fill:#f4d7e3;stroke:#2a7fff;stroke-width:0;stroke-miterlimit:0"
      id="path7467"
      cx="27.816637"
      cy="23.099195"
      r="0.97602236"
    />
    <path
      style="fill:none;fill-opacity:1;stroke:#00002b;stroke-width:0.0499999;stroke-miterlimit:0;stroke-dasharray:none"
      d="m 27.027761,23.193582 c 0,0 0.169342,0.348271 0.747663,0.373832 m 0.747663,-0.373832 c 0,0 -0.169342,0.348271 -0.747663,0.373832"
      id="path23285"
      inkscape:original-d="m 27.027761,23.193582 c 0,0 0.169342,0.348271 0.747663,0.373832"
      inkscape:path-effect="#path-effect24139"
      class="UnoptimicedTransforms"
    />
    <circle
      id="path19239"
      style="fill:#00002b;stroke:#2a7fff;stroke-width:0.264583"
      cx="28.01506"
      cy="23.183998"
      r="0"
    />
    <circle
      id="path19241"
      style="fill:#00002b;stroke:#2a7fff;stroke-width:0.264583"
      cx="27.836132"
      cy="23.746342"
      r="0"
    />
    <path
      style="display:inline;fill:#0b0b28;fill-opacity:1;stroke:#00002b;stroke-width:0.05;stroke-miterlimit:0;stroke-dasharray:none"
      d="m 27.781974,22.892425 v 0.695867"
      id="path19379"
      inkscape:label="mouth-line"
      sodipodi:nodetypes="cc"
    />
    <g id="path19570">
      <path
        style="color:#000000;fill:#000000;stroke-width:0.0499999;stroke-miterlimit:0;-inkscape-stroke:none"
        d="m 28.471969,23.174411 -0.348553,0.196868 -0.3416,0.19294"
        id="path19574"
        inkscape:path-effect="#path-effect24135"
        inkscape:original-d="m 27.091663,23.174411 0.348553,0.196868 0.3416,0.19294"
        class="UnoptimicedTransforms"
      />
    </g>
    <path
      style="fill:#f4a2a2;fill-opacity:1;stroke:#2a7fff;stroke-width:0;stroke-miterlimit:0"
      id="path7361"
      inkscape:path-effect="#path-effect24176"
      sodipodi:type="arc"
      sodipodi:cx="25.164295"
      sodipodi:cy="23.914679"
      sodipodi:rx="1.2109907"
      sodipodi:ry="1.2109907"
      d="m 26.375286,23.914679 c 0,0.668811 -0.542179,1.21099 -1.210991,1.21099 -0.668811,0 -1.21099,-0.542179 -1.21099,-1.21099 0,-0.668812 0.542179,-1.210991 1.21099,-1.210991 0.668812,0 1.210991,0.542179 1.210991,1.210991 z m 2.81962,0 c 0,0.668811 0.542179,1.21099 1.210991,1.21099 0.668811,0 1.21099,-0.542179 1.21099,-1.21099 0,-0.668812 -0.542179,-1.210991 -1.21099,-1.210991 -0.668812,0 -1.210991,0.542179 -1.210991,1.210991 z"
      class="UnoptimicedTransforms"
    />
    <path
      id="rect18359"
      style="fill:#f4a2a2;stroke:#2a7fff;stroke-width:0;stroke-miterlimit:0"
      d="m 23.849609,29.419922 c -0.153341,0.200913 1.193834,4.33415 2.951172,4.36914 0.38159,0.0076 0.789271,-0.251841 0.951172,-0.61914 0.161901,0.367299 0.569582,0.626737 0.951172,0.61914 1.757338,-0.03499 3.104513,-4.168227 2.951172,-4.36914 l -0.08984,0.02344 c 0,0 -2.105587,1.24388 -3.792969,3.011719 -0.0064,0.01318 -0.01383,0.02786 -0.01953,0.04102 -0.0057,-0.01315 -0.01115,-0.02783 -0.01758,-0.04102 -1.687382,-1.767839 -3.794922,-3.011719 -3.794922,-3.011719 z"
      sodipodi:nodetypes="cccssc"
      inkscape:transform-center-x="-1.6816126"
      inkscape:transform-center-y="2.5063865"
      inkscape:path-effect="#path-effect24174"
      inkscape:original-d="m 23.850043,29.420005 0.09007,0.02286 c 0,0 2.106924,1.245078 3.794306,3.012917 0.336464,0.690306 -0.33043,1.34581 -0.932794,1.333818 -1.757338,-0.03499 -3.104915,-4.168683 -2.951574,-4.369596 z"
      class="UnoptimicedTransforms"
      transform="translate(0.05422347)"
    />
    <path
      style="fill:#00002b;fill-opacity:1;stroke:#2a7fff;stroke-width:0;stroke-miterlimit:0"
      id="path19174"
      inkscape:path-effect="#path-effect24178"
      sodipodi:type="arc"
      sodipodi:cx="25.970167"
      sodipodi:cy="22.519405"
      sodipodi:rx="0.25561187"
      sodipodi:ry="0.25561187"
      d="m 26.225779,22.519405 c 0,0.141171 -0.114441,0.255612 -0.255612,0.255612 -0.14117,0 -0.255612,-0.114441 -0.255612,-0.255612 0,-0.14117 0.114442,-0.255612 0.255612,-0.255612 0.141171,0 0.255612,0.114442 0.255612,0.255612 z m 3.14496,0 c 0,0.141171 0.114441,0.255612 0.255612,0.255612 0.14117,0 0.255612,-0.114441 0.255612,-0.255612 0,-0.14117 -0.114442,-0.255612 -0.255612,-0.255612 -0.141171,0 -0.255612,0.114442 -0.255612,0.255612 z"
      class="UnoptimicedTransforms"
    />
  </g>
</svg>
